<svg width="1187px" height="118px"
 viewBox="0.00 0.00 1186.50 118.00" xmlns="http://www.w3.org/2000/svg" xmlns:xlink="http://www.w3.org/1999/xlink">
<g id="graph0" class="graph" transform="scale(1.0 1.0) rotate(0) translate(4 114)">
<title>de.uniks.beastopia.teaml.dto</title>
<polygon fill="white" stroke="transparent" points="-4,4 -4,-114 1182.5,-114 1182.5,4 -4,4"/>
<!-- CreateGroupDto -->
<g id="node1" class="node">
<title>CreateGroupDto</title>
<polygon fill="none" stroke="black" points="8,-62 8,-83 136,-83 136,-62 8,-62"/>
<text text-anchor="start" x="25" y="-68.8" font-family="Times New Roman,serif" font-size="14.00">CreateGroupDto</text>
<polygon fill="none" stroke="black" points="8,-26 8,-62 136,-62 136,-26 8,-26"/>
<text text-anchor="start" x="11" y="-47.8" font-family="Times New Roman,serif" font-size="14.00">name :String</text>
<text text-anchor="start" x="11" y="-32.8" font-family="Times New Roman,serif" font-size="14.00">members :List&lt;User&gt;</text>
</g>
<!-- CreateMessageDto -->
<g id="node2" class="node">
<title>CreateMessageDto</title>
<polygon fill="none" stroke="black" points="170,-55 170,-76 282,-76 282,-55 170,-55"/>
<text text-anchor="start" x="173" y="-61.8" font-family="Times New Roman,serif" font-size="14.00">CreateMessageDto</text>
<polygon fill="none" stroke="black" points="170,-34 170,-55 282,-55 282,-34 170,-34"/>
<text text-anchor="start" x="191" y="-40.8" font-family="Times New Roman,serif" font-size="14.00">body :String</text>
</g>
<!-- CreateUserDto -->
<g id="node3" class="node">
<title>CreateUserDto</title>
<polygon fill="none" stroke="black" points="317,-70 317,-91 418,-91 418,-70 317,-70"/>
<text text-anchor="start" x="325.5" y="-76.8" font-family="Times New Roman,serif" font-size="14.00">CreateUserDto</text>
<polygon fill="none" stroke="black" points="317,-19 317,-70 418,-70 418,-19 317,-19"/>
<text text-anchor="start" x="320" y="-55.8" font-family="Times New Roman,serif" font-size="14.00">name :String</text>
<text text-anchor="start" x="320" y="-40.8" font-family="Times New Roman,serif" font-size="14.00">avatar :String</text>
<text text-anchor="start" x="320" y="-25.8" font-family="Times New Roman,serif" font-size="14.00">password :String</text>
</g>
<!-- LoginDto -->
<g id="node4" class="node">
<title>LoginDto</title>
<polygon fill="none" stroke="black" points="452,-62 452,-83 553,-83 553,-62 452,-62"/>
<text text-anchor="start" x="475.5" y="-68.8" font-family="Times New Roman,serif" font-size="14.00">LoginDto</text>
<polygon fill="none" stroke="black" points="452,-26 452,-62 553,-62 553,-26 452,-26"/>
<text text-anchor="start" x="455" y="-47.8" font-family="Times New Roman,serif" font-size="14.00">name :String</text>
<text text-anchor="start" x="455" y="-32.8" font-family="Times New Roman,serif" font-size="14.00">password :String</text>
</g>
<!-- RefreshDto -->
<g id="node5" class="node">
<title>RefreshDto</title>
<polygon fill="none" stroke="black" points="587,-55 587,-76 708,-76 708,-55 587,-55"/>
<text text-anchor="start" x="615" y="-61.8" font-family="Times New Roman,serif" font-size="14.00">RefreshDto</text>
<polygon fill="none" stroke="black" points="587,-34 587,-55 708,-55 708,-34 587,-34"/>
<text text-anchor="start" x="590" y="-40.8" font-family="Times New Roman,serif" font-size="14.00">refreshToken :String</text>
</g>
<!-- UpdateGroupDto -->
<g id="node6" class="node">
<title>UpdateGroupDto</title>
<polygon fill="none" stroke="black" points="742,-62 742,-83 870,-83 870,-62 742,-62"/>
<text text-anchor="start" x="756.5" y="-68.8" font-family="Times New Roman,serif" font-size="14.00">UpdateGroupDto</text>
<polygon fill="none" stroke="black" points="742,-26 742,-62 870,-62 870,-26 742,-26"/>
<text text-anchor="start" x="745" y="-47.8" font-family="Times New Roman,serif" font-size="14.00">name :String</text>
<text text-anchor="start" x="745" y="-32.8" font-family="Times New Roman,serif" font-size="14.00">members :List&lt;User&gt;</text>
</g>
<!-- UpdateMessageDto -->
<g id="node7" class="node">
<title>UpdateMessageDto</title>
<polygon fill="none" stroke="black" points="905,-55 905,-76 1022,-76 1022,-55 905,-55"/>
<text text-anchor="start" x="908" y="-61.8" font-family="Times New Roman,serif" font-size="14.00">UpdateMessageDto</text>
<polygon fill="none" stroke="black" points="905,-34 905,-55 1022,-55 1022,-34 905,-34"/>
<text text-anchor="start" x="928.5" y="-40.8" font-family="Times New Roman,serif" font-size="14.00">body :String</text>
</g>
<!-- UpdateUserDto -->
<g id="node8" class="node">
<title>UpdateUserDto</title>
<polygon fill="none" stroke="black" points="1056,-85 1056,-106 1171,-106 1171,-85 1056,-85"/>
<text text-anchor="start" x="1069.5" y="-91.8" font-family="Times New Roman,serif" font-size="14.00">UpdateUserDto</text>
<polygon fill="none" stroke="black" points="1056,-4 1056,-85 1171,-85 1171,-4 1056,-4"/>
<text text-anchor="start" x="1059" y="-70.8" font-family="Times New Roman,serif" font-size="14.00">name :String</text>
<text text-anchor="start" x="1059" y="-55.8" font-family="Times New Roman,serif" font-size="14.00">status :String</text>
<text text-anchor="start" x="1059" y="-40.8" font-family="Times New Roman,serif" font-size="14.00">avatar :String</text>
<text text-anchor="start" x="1059" y="-25.8" font-family="Times New Roman,serif" font-size="14.00">friends :List&lt;User&gt;</text>
<text text-anchor="start" x="1059" y="-10.8" font-family="Times New Roman,serif" font-size="14.00">password :String</text>
</g>
</g>
</svg>
