<svg width="584px" height="111px"
 viewBox="0.00 0.00 583.50 111.00" xmlns="http://www.w3.org/2000/svg" xmlns:xlink="http://www.w3.org/1999/xlink">
<g id="graph0" class="graph" transform="scale(1.0 1.0) rotate(0) translate(4 107)">
<title>de.uniks.beastopia.teaml.model</title>
<polygon fill="white" stroke="transparent" points="-4,4 -4,-107 579.5,-107 579.5,4 -4,4"/>
<!-- Group -->
<g id="node1" class="node">
<title>Group</title>
<polygon fill="none" stroke="black" points="8.5,-76.5 8.5,-98.5 113.5,-98.5 113.5,-76.5 8.5,-76.5"/>
<text text-anchor="start" x="43.12" y="-82.9" font-family="Times,serif" font-size="14.00">Group</text>
<polygon fill="none" stroke="black" points="8.5,-3.5 8.5,-76.5 113.5,-76.5 113.5,-3.5 8.5,-3.5"/>
<text text-anchor="start" x="11.5" y="-60.9" font-family="Times,serif" font-size="14.00">createdAt :String</text>
<text text-anchor="start" x="11.5" y="-44.1" font-family="Times,serif" font-size="14.00">updatedAt :String</text>
<text text-anchor="start" x="11.5" y="-27.3" font-family="Times,serif" font-size="14.00">_id :String</text>
<text text-anchor="start" x="11.5" y="-10.5" font-family="Times,serif" font-size="14.00">name :String</text>
</g>
<!-- Message -->
<g id="node2" class="node">
<title>Message</title>
<polygon fill="none" stroke="black" points="147.5,-76.5 147.5,-98.5 252.5,-98.5 252.5,-76.5 147.5,-76.5"/>
<text text-anchor="start" x="175.51" y="-82.9" font-family="Times,serif" font-size="14.00">Message</text>
<polygon fill="none" stroke="black" points="147.5,-3.5 147.5,-76.5 252.5,-76.5 252.5,-3.5 147.5,-3.5"/>
<text text-anchor="start" x="150.5" y="-60.9" font-family="Times,serif" font-size="14.00">createdAt :String</text>
<text text-anchor="start" x="150.5" y="-44.1" font-family="Times,serif" font-size="14.00">updatedAt :String</text>
<text text-anchor="start" x="150.5" y="-27.3" font-family="Times,serif" font-size="14.00">_id :String</text>
<text text-anchor="start" x="150.5" y="-10.5" font-family="Times,serif" font-size="14.00">body :String</text>
</g>
<!-- Region -->
<g id="node3" class="node">
<title>Region</title>
<polygon fill="none" stroke="black" points="286.5,-76.5 286.5,-98.5 391.5,-98.5 391.5,-76.5 286.5,-76.5"/>
<text text-anchor="start" x="318.78" y="-82.9" font-family="Times,serif" font-size="14.00">Region</text>
<polygon fill="none" stroke="black" points="286.5,-3.5 286.5,-76.5 391.5,-76.5 391.5,-3.5 286.5,-3.5"/>
<text text-anchor="start" x="289.5" y="-60.9" font-family="Times,serif" font-size="14.00">createdAt :String</text>
<text text-anchor="start" x="289.5" y="-44.1" font-family="Times,serif" font-size="14.00">updatedAt :String</text>
<text text-anchor="start" x="289.5" y="-27.3" font-family="Times,serif" font-size="14.00">_id :String</text>
<text text-anchor="start" x="289.5" y="-10.5" font-family="Times,serif" font-size="14.00">name :String</text>
</g>
<!-- ValidationErrorRespone -->
<g id="node4" class="node">
<title>ValidationErrorRespone</title>
<polygon fill="none" stroke="black" points="425.5,-68.5 425.5,-90.5 567.5,-90.5 567.5,-68.5 425.5,-68.5"/>
<text text-anchor="start" x="428.08" y="-74.9" font-family="Times,serif" font-size="14.00">ValidationErrorRespone</text>
<polygon fill="none" stroke="black" points="425.5,-12.5 425.5,-68.5 567.5,-68.5 567.5,-12.5 425.5,-12.5"/>
<text text-anchor="start" x="451.98" y="-52.9" font-family="Times,serif" font-size="14.00">statusCode :int</text>
<text text-anchor="start" x="451.98" y="-36.1" font-family="Times,serif" font-size="14.00">error :String</text>
<text text-anchor="start" x="451.98" y="-19.3" font-family="Times,serif" font-size="14.00">message :String</text>
</g>
</g>
</svg>
